HIERARCHY
ROOT hip
{
  OFFSET 0 0 0
  CHANNELS 6 Xposition Yposition Zposition Zrotation Yrotation Xrotation
  JOINT abdomen
  {
    OFFSET 0 20.6881 -0.73152
    CHANNELS 3 Zrotation Xrotation Yrotation
    JOINT chest
    {
      OFFSET 0 11.7043 -0.48768
      CHANNELS 3 Zrotation Xrotation Yrotation
      JOINT neck
      {
        OFFSET 0 22.1894 -2.19456
        CHANNELS 3 Zrotation Xrotation Yrotation
        JOINT head
        {
          OFFSET -0.24384 7.07133 1.2192
          CHANNELS 3 Zrotation Xrotation Yrotation
          JOINT leftEye
          {
            OFFSET 4.14528 8.04674 8.04672
            CHANNELS 3 Zrotation Xrotation Yrotation
            End Site
            {
              OFFSET 1 0 0
            }
          }
          JOINT rightEye
          {
            OFFSET -3.6576 8.04674 8.04672
            CHANNELS 3 Zrotation Xrotation Yrotation
            End Site
            {
              OFFSET 1 0 0
            }
          }
        }
      }
      JOINT rCollar
      {
        OFFSET -2.68224 19.2634 -4.8768
        CHANNELS 3 Zrotation Xrotation Yrotation
        JOINT rShldr
        {
          OFFSET -8.77824 -1.95073 1.46304
          CHANNELS 3 Zrotation Xrotation Yrotation
          JOINT rForeArm
          {
            OFFSET -28.1742 -1.7115 0.48768
            CHANNELS 3 Zrotation Xrotation Yrotation
            JOINT rHand
            {
              OFFSET -22.5879 0.773209 7.07136
              CHANNELS 3 Zrotation Xrotation Yrotation
              JOINT rThumb1
              {
                OFFSET -1.2192 -0.487915 3.41376
                CHANNELS 3 Zrotation Xrotation Yrotation
                JOINT rThumb2
                {
                  OFFSET -3.37035 -0.52449 3.41376
                  CHANNELS 3 Zrotation Xrotation Yrotation
                  End Site
                  {
                    OFFSET -1.78271 -1.18214 1.43049
                  }
                }
              }
              JOINT rIndex1
              {
                OFFSET -7.75947 0.938293 5.60832
                CHANNELS 3 Zrotation Xrotation Yrotation
                JOINT rIndex2
                {
                  OFFSET -2.54057 -0.884171 1.56538
                  CHANNELS 3 Zrotation Xrotation Yrotation
                  End Site
                  {
                    OFFSET -1.62519 -0.234802 1.16502
                  }
                }
              }
              JOINT rMid1
              {
                OFFSET -8.24714 1.18213 3.41376
                CHANNELS 3 Zrotation Xrotation Yrotation
                JOINT rMid2
                {
                  OFFSET -3.10165 -0.590103 1.0647
                  CHANNELS 3 Zrotation Xrotation Yrotation
                  End Site
                  {
                    OFFSET -2.48547 -0.328903 0.83742
                  }
                }
              }
              JOINT rRing1
              {
                OFFSET -8.82822 0.546677 1.51678
                CHANNELS 3 Zrotation Xrotation Yrotation
                JOINT rRing2
                {
                  OFFSET -2.60934 -0.819778 -0.0198488
                  CHANNELS 3 Zrotation Xrotation Yrotation
                  End Site
                  {
                    OFFSET -2.33842 -0.294052 0.168128
                  }
                }
              }
              JOINT rPinky1
              {
                OFFSET -8.27202 -0.0477905 -0.4584
                CHANNELS 3 Zrotation Xrotation Yrotation
                JOINT rPinky2
                {
                  OFFSET -1.82734 -0.647385 -0.700984
                  CHANNELS 3 Zrotation Xrotation Yrotation
                  End Site
                  {
                    OFFSET -1.69225 -0.51767 -0.607171
                  }
                }
              }
            }
          }
        }
      }
      JOINT lCollar
      {
        OFFSET 2.68224 19.2634 -4.8768
        CHANNELS 3 Zrotation Xrotation Yrotation
        JOINT lShldr
        {
          OFFSET 8.77824 -1.95073 1.46304
          CHANNELS 3 Zrotation Xrotation Yrotation
          JOINT lForeArm
          {
            OFFSET 28.1742 -1.7115 0.48768
            CHANNELS 3 Zrotation Xrotation Yrotation
            JOINT lHand
            {
              OFFSET 22.5879 0.773209 7.07136
              CHANNELS 3 Zrotation Xrotation Yrotation
              JOINT lThumb1
              {
                OFFSET 1.2192 -0.487915 3.41376
                CHANNELS 3 Zrotation Xrotation Yrotation
                JOINT lThumb2
                {
                  OFFSET 3.37035 -0.52449 3.41376
                  CHANNELS 3 Zrotation Xrotation Yrotation
                  End Site
                  {
                    OFFSET 1.78271 -1.18214 1.43049
                  }
                }
              }
              JOINT lIndex1
              {
                OFFSET 7.75947 0.938293 5.60832
                CHANNELS 3 Zrotation Xrotation Yrotation
                JOINT lIndex2
                {
                  OFFSET 2.54057 -0.884171 1.56538
                  CHANNELS 3 Zrotation Xrotation Yrotation
                  End Site
                  {
                    OFFSET 1.62519 -0.234802 1.16502
                  }
                }
              }
              JOINT lMid1
              {
                OFFSET 8.24714 1.18213 3.41376
                CHANNELS 3 Zrotation Xrotation Yrotation
                JOINT lMid2
                {
                  OFFSET 3.10165 -0.590103 1.0647
                  CHANNELS 3 Zrotation Xrotation Yrotation
                  End Site
                  {
                    OFFSET 2.48547 -0.328903 0.83742
                  }
                }
              }
              JOINT lRing1
              {
                OFFSET 8.82822 0.546677 1.51678
                CHANNELS 3 Zrotation Xrotation Yrotation
                JOINT lRing2
                {
                  OFFSET 2.60934 -0.819778 -0.0198488
                  CHANNELS 3 Zrotation Xrotation Yrotation
                  End Site
                  {
                    OFFSET 2.33842 -0.294052 0.168128
                  }
                }
              }
              JOINT lPinky1
              {
                OFFSET 8.27202 -0.0477905 -0.4584
                CHANNELS 3 Zrotation Xrotation Yrotation
                JOINT lPinky2
                {
                  OFFSET 1.82734 -0.647385 -0.700984
                  CHANNELS 3 Zrotation Xrotation Yrotation
                  End Site
                  {
                    OFFSET 1.69225 -0.51767 -0.607171
                  }
                }
              }
            }
          }
        }
      }
    }
  }
  JOINT rButtock
  {
    OFFSET -8.77824 4.35084 1.2192
    CHANNELS 3 Zrotation Xrotation Yrotation
    JOINT rThigh
    {
      OFFSET 0 -1.70687 -2.19456
      CHANNELS 3 Zrotation Xrotation Yrotation
      JOINT rShin
      {
        OFFSET 0 -36.8199 0.73152
        CHANNELS 3 Zrotation Xrotation Yrotation
        JOINT rFoot
        {
          OFFSET 0.73152 -45.1104 -5.12064
          CHANNELS 3 Zrotation Xrotation Yrotation
          End Site
          {
            OFFSET -1.1221 -3.69964 12.103
          }
        }
      }
    }
  }
  JOINT lButtock
  {
    OFFSET 8.77824 4.35084 1.2192
    CHANNELS 3 Zrotation Xrotation Yrotation
    JOINT lThigh
    {
      OFFSET 0 -1.70687 -2.19456
      CHANNELS 3 Zrotation Xrotation Yrotation
      JOINT lShin
      {
        OFFSET 0 -36.8199 0.73152
        CHANNELS 3 Zrotation Xrotation Yrotation
        JOINT lFoot
        {
          OFFSET -0.73152 -45.1104 -5.12064
          CHANNELS 3 Zrotation Xrotation Yrotation
          End Site
          {
            OFFSET 1.1221 -3.69964 12.103
          }
        }
      }
    }
  }
}
MOTION
Frames:	4
Frame Time:	0.03333
-107.41014386658753 61.76177383397603 29.181868436344697 -3.7115180492401123 -16.770858764648438 -11.872407913208008 4.760061740875244 28.180906295776367 11.061734199523926 -2.671812057495117 -9.734813690185547 6.482153415679932 -3.660034418106079 13.58614444732666 0.4050244688987732 5.755775451660156 -25.814226150512695 2.9157068729400635 -0.3354325294494629 -0.8292352557182312 1.3019028902053833 -0.9398743510246277 1.160741925239563 3.6138505935668945 -0.10998547077178955 -0.4946078658103943 2.7929420471191406 42.28561019897461 46.143531799316406 15.460378646850586 -27.796289443969727 -28.916404724121094 71.61748504638672 0.2876209020614624 13.117087364196777 4.4465131759643555 1.257721185684204 -0.013793393969535828 3.2785751819610596 0.01132720336318016 -0.8235639333724976 2.600727081298828 -1.0477337837219238 0.25863686203956604 2.4657785892486572 8.18675708770752 5.489624977111816 3.0062830448150635 2.417354106903076 -1.2252051830291748 4.047634124755859 3.832566976547241 2.741854190826416 1.9781055450439453 1.057906985282898 -0.5632476806640625 3.584892988204956 11.350973129272461 0.4769458472728729 1.8361660242080688 0.8891066312789917 0.7479352951049805 1.5021018981933594 2.348149061203003 -1.0055816173553467 2.863126277923584 -1.5397032499313354 -0.7912145853042603 2.4883627891540527 -66.98198699951172 20.84673309326172 -3.263984203338623 23.901954650878906 -20.794837951660156 -50.29145431518555 -0.3877023160457611 -24.882749557495117 5.926405429840088 -1.3023109436035156 1.8810392618179321 3.3365654945373535 1.4722161293029785 -0.5905980467796326 4.039534568786621 -0.4223012924194336 -0.9972900152206421 1.5091724395751953 -7.818758487701416 6.106088638305664 2.531287431716919 -0.14948400855064392 -2.179753065109253 1.9889888763427734 -1.7718091011047363 0.03712756559252739 1.719901442527771 0.12427765876054764 -0.08817432820796967 3.046963691711426 -11.075478553771973 0.6565048098564148 2.2973575592041016 0.0963188111782074 0.5475980043411255 4.397667407989502 -2.006756067276001 -1.4035471677780151 3.585808515548706 -0.6516281962394714 -0.358829528093338 3.1394240856170654 -11.863462448120117 -4.424911975860596 -0.1336147040128708 0.39008811116218567 53.54124069213867 5.484854221343994 -12.970077514648438 -14.601073265075684 -24.703615188598633 1.0516893863677979 0.994349479675293 2.0486702919006348 92.95516204833984 -57.30322265625 83.09313201904297 164.2561798095703 88.2387466430664 -162.52981567382812 1.885636329650879 1.0311866998672485 8.682703018188477
-109.44835939983126 61.64141224042206 29.974263388032764 -3.6494898796081543 -16.672100067138672 -10.028142929077148 3.717217206954956 27.87759017944336 11.65450382232666 -2.4803686141967773 -9.940062522888184 6.57351541519165 -3.634449005126953 13.584985733032227 0.20986858010292053 5.838428497314453 -26.206417083740234 2.6551573276519775 -0.2615785002708435 -0.8717246651649475 1.6082196235656738 -0.8075572848320007 1.1675549745559692 3.7527832984924316 -0.055121950805187225 -0.41111552715301514 2.9829835891723633 41.790252685546875 45.81959533691406 16.25804901123047 -28.167593002319336 -29.036508560180664 72.288818359375 0.3127407431602478 14.091012954711914 4.854840278625488 1.1847343444824219 -0.05007292330265045 3.476991891860962 -0.02428724616765976 -0.8976436853408813 2.865017890930176 -0.9601851105690002 0.25912508368492126 2.733668327331543 8.173398971557617 5.558285236358643 3.1245594024658203 2.35439395904541 -1.2914795875549316 4.187015056610107 3.7371482849121094 2.706822156906128 2.1485841274261475 1.09888756275177 -0.44239342212677 3.7389683723449707 11.348583221435547 0.4106437861919403 2.0536255836486816 0.8993461728096008 0.7305784225463867 1.6874111890792847 2.3944132328033447 -0.9049046635627747 3.005915403366089 -1.4412879943847656 -0.7546142935752869 2.8400747776031494 -66.97987365722656 21.64884376525879 -3.11405611038208 24.411161422729492 -22.167478561401367 -52.518775939941406 -0.16514195501804352 -26.220348358154297 6.416880130767822 -1.2886537313461304 1.8158854246139526 3.4913182258605957 1.3696107864379883 -0.6041201949119568 4.050254821777344 -0.3889100253582001 -1.0526100397109985 1.6157143115997314 -7.770733833312988 6.121242523193359 2.5686299800872803 -0.06333748251199722 -2.1206107139587402 2.218384027481079 -1.749938726425171 -7.129676669137552e-05 1.8864272832870483 0.05785231292247772 -0.2056528776884079 3.193666458129883 -11.013257026672363 0.7177457213401794 2.4435195922851562 0.21975313127040863 0.6551106572151184 4.49727201461792 -2.040787696838379 -1.347530722618103 3.6126067638397217 -0.6200460195541382 -0.2882840633392334 3.296720266342163 -12.198643684387207 -7.130093097686768 -0.5459467768669128 0.1689244955778122 56.86642837524414 5.814414024353027 -12.42278003692627 -14.589730262756348 -23.61279296875 1.107601284980774 0.902549147605896 2.0431129932403564 88.6897201538086 -58.1883544921875 79.88501739501953 135.89239501953125 89.3118667602539 -133.94198608398438 2.052675724029541 0.49282678961753845 9.34224796295166
-111.54352120839313 60.68668156804851 30.379863659805952 -5.17673921585083 -19.794403076171875 -9.200642585754395 5.355106353759766 27.474485397338867 10.192817687988281 -3.1672797203063965 -10.134712219238281 5.381259918212891 -2.783332586288452 13.238447189331055 -0.2752443850040436 5.304423809051514 -26.583396911621094 2.979098081588745 -0.023562738671898842 -0.8455657958984375 0.6200789213180542 -0.8772105574607849 1.2510743141174316 2.5364930629730225 -0.37384602427482605 -0.3900584280490875 1.9130146503448486 43.96104049682617 48.19121170043945 12.466713905334473 -28.615095138549805 -30.80471420288086 72.8968734741211 -0.07724052667617798 13.370182037353516 3.735966444015503 1.1046385765075684 -0.14306801557540894 2.149595022201538 0.029458414763212204 -0.9657698273658752 1.8251351118087769 -1.0164892673492432 0.1936638206243515 1.4232864379882812 8.169099807739258 5.476620197296143 1.7576733827590942 2.409114360809326 -1.1127647161483765 2.9753401279449463 3.7415778636932373 2.5695269107818604 1.0856974124908447 1.193978190422058 -0.40324559807777405 2.242485761642456 11.500273704528809 0.36566224694252014 1.0605400800704956 0.7859165072441101 0.7607918977737427 0.5498440265655518 2.4902191162109375 -0.8831146955490112 1.840331792831421 -1.4168089628219604 -0.4965551197528839 1.6247676610946655 -66.90629577636719 21.12446403503418 -5.249072074890137 25.091569900512695 -22.439685821533203 -55.42158508300781 -0.18680329620838165 -25.491470336914062 4.991168022155762 -1.2304773330688477 1.9173884391784668 2.4261465072631836 1.574199914932251 -0.608322262763977 2.7813498973846436 -0.39223289489746094 -1.0502723455429077 0.31036069989204407 -7.854292869567871 6.232030868530273 1.4410016536712646 -0.09567281603813171 -1.904909610748291 1.1654269695281982 -1.7353858947753906 0.10673362016677856 0.641750693321228 0.0837852954864502 -0.22448356449604034 1.9656978845596313 -11.012872695922852 0.5410960912704468 1.2665636539459229 0.42711547017097473 0.40805935859680176 3.1779139041900635 -2.047471046447754 -1.370632529258728 2.438922643661499 -0.6510823965072632 -0.3695356547832489 2.1646764278411865 -11.913952827453613 -6.22596549987793 -2.2394540309906006 0.13471370935440063 57.02969741821289 4.575321674346924 -13.338123321533203 -15.440135955810547 -26.397066116333008 1.0561413764953613 0.6146277189254761 0.7929244637489319 90.6220474243164 -56.54970169067383 81.71263885498047 167.30032348632812 86.59227752685547 -166.34170532226562 1.3973191976547241 1.061092495918274 6.8811726570129395
-113.63752231168294 59.98928510284436 30.493494688902253 -7.104001045227051 -22.91623878479004 -7.550149917602539 7.176502704620361 26.53256607055664 9.257577896118164 -3.494305372238159 -10.132641792297363 4.844512939453125 -2.2506966590881348 13.037751197814941 -0.11401230096817017 5.128904819488525 -26.654361724853516 3.8463401794433594 0.17935076355934143 -0.8403394222259521 0.16085690259933472 -0.9825704097747803 1.308066487312317 1.9869765043258667 -0.5782784819602966 -0.36990171670913696 1.3570573329925537 48.33066177368164 49.92185974121094 7.070521354675293 -28.838260650634766 -32.35400390625 73.99576568603516 -0.3105024993419647 12.094268798828125 3.0946848392486572 1.0640113353729248 -0.1272767037153244 1.3754152059555054 0.10278166830539703 -0.8314918875694275 1.3100183010101318 -1.1310712099075317 0.05141975358128548 0.693686306476593 8.104397773742676 5.338647365570068 0.9679809212684631 2.3886117935180664 -1.0331737995147705 2.317812204360962 3.839369773864746 2.4329538345336914 0.694553554058075 1.196885585784912 -0.43318355083465576 1.4288822412490845 11.58743667602539 0.3489361107349396 0.5634713172912598 0.630781888961792 0.8562933802604675 0.08349956572055817 2.530973196029663 -1.0067627429962158 1.3019849061965942 -1.39203941822052 -0.32170429825782776 1.0190469026565552 -66.64618682861328 20.716440200805664 -6.727604389190674 25.634469985961914 -22.335163116455078 -57.203243255615234 -0.3390170633792877 -23.89012336730957 3.8420326709747314 -1.1974525451660156 1.9658502340316772 2.023575782775879 1.6972442865371704 -0.6234977841377258 2.2268965244293213 -0.5122724175453186 -0.9694366455078125 -0.2804124653339386 -7.905948162078857 6.277370929718018 0.8585270047187805 -0.06334947794675827 -1.6791954040527344 0.6273180842399597 -1.7896686792373657 0.1589209884405136 0.05738532543182373 0.16834750771522522 -0.12262021005153656 1.3644804954528809 -10.991000175476074 0.3641953468322754 0.8562511801719666 0.4975590705871582 0.230280339717865 2.423078775405884 -2.028027057647705 -1.4001474380493164 1.9290317296981812 -0.6113671064376831 -0.41372787952423096 1.5972439050674438 -11.03339958190918 -4.284787178039551 -3.0728554725646973 0.27553296089172363 55.01865005493164 3.8984227180480957 -14.187198638916016 -16.20578956604004 -28.62265968322754 1.000044822692871 0.41023772954940796 0.27575016021728516 91.85858154296875 -55.30066680908203 83.18955993652344 168.4110870361328 85.67119598388672 -167.8746337890625 1.1022701263427734 1.8136752843856812 5.1299872398376465
